<?xml version="1.0" encoding="utf-8"?>
<!-- Generator: Adobe Illustrator 16.0.4, SVG Export Plug-In . SVG Version: 6.00 Build 0)  -->
<!DOCTYPE svg PUBLIC "-//W3C//DTD SVG 1.0//EN" "http://www.w3.org/TR/2001/REC-SVG-20010904/DTD/svg10.dtd">
<svg version="1.0" id="Layer_1" xmlns="http://www.w3.org/2000/svg" xmlns:xlink="http://www.w3.org/1999/xlink" x="0px" y="0px"
	 width="481.507px" height="390.987px" viewBox="0 0 481.507 390.987" enable-background="new 0 0 481.507 390.987"
	 xml:space="preserve">
<path fill-rule="evenodd" clip-rule="evenodd" fill="#424242" d="M217.713,390.987c-14.121-12.851-27.816-25.267-41.459-37.741
	c-18.849-17.234-37.625-34.549-56.532-51.719c-1.833-1.663-2.517-3.048-2.242-5.585c5.285-48.607,10.444-97.229,15.631-145.847
	c1.184-11.097,2.624-22.173,3.463-33.295c0.422-5.583,3.8-8.696,7.675-11.619c11.375-8.581,24.508-13.311,38.22-16.223
	c45.881-9.745,91.823-10.23,137.611,0.557c12.048,2.839,23.488,7.41,32.908,16.031c3.941,3.607,5.124,7.437,4.503,12.848
	c-3.917,34.132-7.46,68.307-11.107,102.469c-2.697,25.258-5.337,50.521-8.127,75.771c-0.154,1.398-1.131,3.079-2.254,3.94
	c-28.487,21.867-57.046,43.644-85.591,65.438C239.593,374.272,228.774,382.538,217.713,390.987z"/>
<g>
	<linearGradient id="SVGID_1_" gradientUnits="userSpaceOnUse" x1="240.7534" y1="265.3691" x2="240.7534" y2="145.8637">
		<stop  offset="0" style="stop-color:#FF7300"/>
		<stop  offset="1" style="stop-color:#FE4F16"/>
	</linearGradient>
	<path fill-rule="evenodd" clip-rule="evenodd" fill="url(#SVGID_1_)" d="M288.864,1.514c44.514,3.939,86.22,16.352,123.515,41.562
		c28.95,19.571,51.417,44.666,62.491,78.405c12.43,37.859,6.869,74.021-12.244,108.424c-4.028,7.248-10.77,16.631-15.76,24.492
		c3.392-10.78,7.268-18.135,9.229-32.812c4.101-30.677-0.745-58.911-16.994-85.043c-19.979-32.13-49.243-53.042-83.605-67.409
		c-23.525-9.838-48.084-15.579-73.488-17.807c-67.869-5.953-130.894,8.187-187.862,46.133
		c-30.009,19.989-53.831,45.702-68.364,79.256c-8.686,20.055-12.112,41.042-10.245,62.698c0.652,7.571,0.652,7.571,2.622,15.232
		c-6.832-11.212-12.847-26.454-15.405-39.251c-8.427-42.169,2.925-79.67,27.993-113.465C56.727,66.905,91.515,43.18,131.149,26.107
		c29.303-12.622,59.873-20.534,91.623-23.781c7.296-0.746,14.625-1.158,21.934-1.795c0.855-0.075,9.155-0.674,18.277-0.5
		C273.816,0.237,285.868,1.249,288.864,1.514z"/>
	<linearGradient id="SVGID_2_" gradientUnits="userSpaceOnUse" x1="82.7603" y1="265.3701" x2="82.7602" y2="145.8643">
		<stop  offset="0" style="stop-color:#FF7300"/>
		<stop  offset="1" style="stop-color:#FE4F16"/>
	</linearGradient>
	<path fill-rule="evenodd" clip-rule="evenodd" fill="url(#SVGID_2_)" d="M65.959,151.648c15.908,0,31.013,0,46.792,0
		c-0.412,4.967-0.702,9.862-1.239,14.73c-2.862,25.899-5.819,51.787-8.673,77.688c-1.042,9.456-3.058,31.975-3.058,31.975
		c-14.507,0.23-31.588,0.161-47.014,0.161C57.188,234.461,61.556,193.221,65.959,151.648z"/>
	<linearGradient id="SVGID_3_" gradientUnits="userSpaceOnUse" x1="390.1572" y1="265.3701" x2="390.1572" y2="145.8639">
		<stop  offset="0" style="stop-color:#FF7300"/>
		<stop  offset="1" style="stop-color:#FE4F16"/>
	</linearGradient>
	<path fill-rule="evenodd" clip-rule="evenodd" fill="url(#SVGID_3_)" d="M373.488,151.793c15.607,0,30.94,0,46.808,0
		c-0.714,7.205-1.352,14.143-2.098,21.071c-1.361,12.653-2.778,25.301-4.184,37.95c-1.662,14.973-3.335,29.942-5.006,44.913
		c-0.634,5.669-1.878,20.488-1.878,20.488c-12.921-0.101-34.193-0.106-47.113,0.009c0,0,2.781-23.632,3.812-33.523
		c1.317-12.656,2.693-25.308,4.052-37.96c1.638-15.275,3.286-30.549,4.922-45.825C373.049,156.615,373.246,154.308,373.488,151.793z
		"/>
	<linearGradient id="SVGID_4_" gradientUnits="userSpaceOnUse" x1="41.4487" y1="265.3701" x2="41.4487" y2="145.864">
		<stop  offset="0" style="stop-color:#FF7300"/>
		<stop  offset="1" style="stop-color:#FE4F16"/>
	</linearGradient>
	<path fill-rule="evenodd" clip-rule="evenodd" fill="url(#SVGID_4_)" d="M28.869,248.159c2.503-23.525,4.914-46.174,7.334-68.913
		c6.158,0,11.801,0,17.826,0c-1.609,14.549-3.206,28.78-4.75,43.017c-0.758,6.984-3.063,25.896-3.063,25.896
		S33.784,248.159,28.869,248.159z"/>
	<linearGradient id="SVGID_5_" gradientUnits="userSpaceOnUse" x1="431.8428" y1="265.3701" x2="431.8428" y2="145.8647">
		<stop  offset="0" style="stop-color:#FF7300"/>
		<stop  offset="1" style="stop-color:#FE4F16"/>
	</linearGradient>
	<path fill-rule="evenodd" clip-rule="evenodd" fill="url(#SVGID_5_)" d="M444.176,179.047c-0.786,7.744-1.466,14.838-2.232,21.923
		c-1.352,12.514-5.117,47.087-5.117,47.087s-14.058,0-17.316,0c0.545-6.102,0.993-11.866,1.585-17.616
		c1.337-12.96,2.748-25.911,4.117-38.867c0.338-3.204,0.62-9.382,1.017-12.526C426.229,179.047,438.649,179.047,444.176,179.047z"/>
</g>
<g>
</g>
<g>
</g>
<g>
</g>
<g>
</g>
<g>
</g>
<g>
</g>
<g>
</g>
<g>
</g>
<g>
</g>
<g>
</g>
<g>
</g>
<g>
</g>
<g>
</g>
<g>
</g>
<g>
</g>
</svg>
